<?xml version="1.0" standalone="no"?><svg version="1.1" xmlns="http://www.w3.org/2000/svg" width="703.931640625" height="411"><svg x="170.431640625" y="29.5" width="67" height="147"><path d="M4,22L19,22Q29,22,29,32L29,111Q29,121,39,121L54,121L39,121Q29,121,29,111L29,32Q29,22,19,22L4,22L4,22M14,18L14,26M54,117L44,121L54,125" fill="none" stroke="#D3D3D3" stroke-width="1"></path><text x="7" y="19" style="font-family: &quot;Open Sans&quot;, sans-serif; font-size: 14px; font-weight: normal; fill: transparent;">1</text><text x="43.2890625" y="118" style="font-family: &quot;Open Sans&quot;, sans-serif; font-size: 14px; font-weight: normal; fill: transparent;">*</text></svg><svg x="390.98681640625" y="29.5" width="40.66455078125" height="358"><path d="M4,332L27.66455078125,332Q37.66455078125,332,37.66455078125,322L37.66455078125,32Q37.66455078125,22,27.66455078125,22L17.66455078125,22L27.66455078125,22Q37.66455078125,22,37.66455078125,32L37.66455078125,322Q37.66455078125,332,27.66455078125,332L4,332L4,332ZM4,328L14,332L4,336M27.66455078125,18L27.66455078125,26" fill="none" stroke="#D3D3D3" stroke-width="1"></path><text x="7" y="329" style="font-family: &quot;Open Sans&quot;, sans-serif; font-size: 14px; font-weight: normal; fill: transparent;">*</text><text x="20.66455078125" y="19" style="font-family: &quot;Open Sans&quot;, sans-serif; font-size: 14px; font-weight: normal; fill: transparent;">1</text></svg><svg x="404.6513671875" y="29.5" width="87.3486328125" height="244"><path d="M4,22L29.17431640625,22Q39.17431640625,22,39.17431640625,32L39.17431640625,208Q39.17431640625,218,49.17431640625,218L74.3486328125,218L49.17431640625,218Q39.17431640625,218,39.17431640625,208L39.17431640625,32Q39.17431640625,22,29.17431640625,22L4,22L4,22M14,18L14,26M74.3486328125,214L64.3486328125,218L74.3486328125,222" fill="none" stroke="#D3D3D3" stroke-width="1"></path><text x="7" y="19" style="font-family: &quot;Open Sans&quot;, sans-serif; font-size: 14px; font-weight: normal; fill: transparent;">1</text><text x="63.6376953125" y="215" style="font-family: &quot;Open Sans&quot;, sans-serif; font-size: 14px; font-weight: normal; fill: transparent;">*</text></svg><svg x="0" y="2"><rect x="0" y="0" width="174.431640625" height="33" fill="#316896"></rect><text x="10" y="19.75" style="font-family: &quot;Open Sans&quot;, sans-serif; font-size: 13px; font-weight: bold; fill: rgb(255, 255, 255);">User</text></svg><svg x="0" y="35"><rect x="0" y="0" width="174.431640625" height="33" fill="#F2F2F2"></rect><text x="10" y="19.75" style="font-family: &quot;Open Sans&quot;, sans-serif; font-size: 13px; font-weight: bold; fill: black;">id</text><text x="145.94091796875" y="19.75" style="font-family: &quot;Open Sans&quot;, sans-serif; font-size: 13px; font-weight: bold; fill: black;">Int</text></svg><svg x="0" y="68"><rect x="0" y="0" width="174.431640625" height="33" fill="#F2F2F2"></rect><text x="10" y="19.75" style="font-family: &quot;Open Sans&quot;, sans-serif; font-size: 13px; fill: rgb(111, 111, 111);">firstName</text><text x="129.04345703125" y="19.75" style="font-family: &quot;Open Sans&quot;, sans-serif; font-size: 13px; fill: rgb(111, 111, 111);">String</text></svg><svg x="0" y="101"><rect x="0" y="0" width="174.431640625" height="33" fill="#F2F2F2"></rect><text x="10" y="19.75" style="font-family: &quot;Open Sans&quot;, sans-serif; font-size: 13px; fill: rgb(111, 111, 111);">lastName</text><text x="129.04345703125" y="19.75" style="font-family: &quot;Open Sans&quot;, sans-serif; font-size: 13px; fill: rgb(111, 111, 111);">String</text></svg><svg x="0" y="134"><rect x="0" y="0" width="174.431640625" height="33" fill="#F2F2F2"></rect><text x="10" y="19.75" style="font-family: &quot;Open Sans&quot;, sans-serif; font-size: 13px; fill: rgb(111, 111, 111);">password</text><text x="129.04345703125" y="19.75" style="font-family: &quot;Open Sans&quot;, sans-serif; font-size: 13px; fill: rgb(111, 111, 111);">String</text></svg><svg x="0" y="167"><rect x="0" y="0" width="174.431640625" height="33" fill="#F2F2F2"></rect><text x="10" y="19.75" style="font-family: &quot;Open Sans&quot;, sans-serif; font-size: 13px; fill: rgb(111, 111, 111);">email</text><text x="129.04345703125" y="19.75" style="font-family: &quot;Open Sans&quot;, sans-serif; font-size: 13px; fill: rgb(111, 111, 111);">String</text></svg><svg x="0" y="200"><rect x="0" y="0" width="174.431640625" height="33" fill="#F2F2F2"></rect><text x="10" y="19.75" style="font-family: &quot;Open Sans&quot;, sans-serif; font-size: 13px; fill: rgb(111, 111, 111);">lists</text><text x="143.53515625" y="19.75" style="font-family: &quot;Open Sans&quot;, sans-serif; font-size: 13px; fill: rgb(111, 111, 111);">List</text></svg><svg x="224.431640625" y="2"><rect x="0" y="0" width="184.2197265625" height="33" fill="#316896"></rect><text x="10" y="19.75" style="font-family: &quot;Open Sans&quot;, sans-serif; font-size: 13px; font-weight: bold; fill: rgb(255, 255, 255);">List</text></svg><svg x="224.431640625" y="35"><rect x="0" y="0" width="184.2197265625" height="33" fill="#F2F2F2"></rect><text x="10" y="19.75" style="font-family: &quot;Open Sans&quot;, sans-serif; font-size: 13px; font-weight: bold; fill: black;">id</text><text x="155.72900390625" y="19.75" style="font-family: &quot;Open Sans&quot;, sans-serif; font-size: 13px; font-weight: bold; fill: black;">Int</text></svg><svg x="224.431640625" y="68"><rect x="0" y="0" width="184.2197265625" height="33" fill="#F2F2F2"></rect><text x="10" y="19.75" style="font-family: &quot;Open Sans&quot;, sans-serif; font-size: 13px; fill: rgb(111, 111, 111);">title</text><text x="138.83154296875" y="19.75" style="font-family: &quot;Open Sans&quot;, sans-serif; font-size: 13px; fill: rgb(111, 111, 111);">String</text></svg><svg x="224.431640625" y="101"><rect x="0" y="0" width="184.2197265625" height="33" fill="#F2F2F2"></rect><text x="10" y="19.75" style="font-family: &quot;Open Sans&quot;, sans-serif; font-size: 13px; fill: rgb(111, 111, 111);">items</text><text x="146.6201171875" y="19.75" style="font-family: &quot;Open Sans&quot;, sans-serif; font-size: 13px; fill: rgb(111, 111, 111);">Item</text></svg><svg x="224.431640625" y="134"><rect x="0" y="0" width="184.2197265625" height="33" fill="#F2F2F2"></rect><text x="10" y="19.75" style="font-family: &quot;Open Sans&quot;, sans-serif; font-size: 13px; fill: rgb(111, 111, 111);">userId</text><text x="157.982421875" y="19.75" style="font-family: &quot;Open Sans&quot;, sans-serif; font-size: 13px; fill: rgb(111, 111, 111);">Int</text></svg><svg x="224.431640625" y="167"><rect x="0" y="0" width="184.2197265625" height="33" fill="#F2F2F2"></rect><text x="10" y="19.75" style="font-family: &quot;Open Sans&quot;, sans-serif; font-size: 13px; fill: rgb(111, 111, 111);">user</text><text x="145.9345703125" y="19.75" style="font-family: &quot;Open Sans&quot;, sans-serif; font-size: 13px; fill: rgb(111, 111, 111);">User</text></svg><svg x="224.431640625" y="200"><rect x="0" y="0" width="184.2197265625" height="33" fill="#F2F2F2"></rect><text x="10" y="19.75" style="font-family: &quot;Open Sans&quot;, sans-serif; font-size: 13px; fill: rgb(111, 111, 111);">Assignee</text><text x="120.6962890625" y="19.75" style="font-family: &quot;Open Sans&quot;, sans-serif; font-size: 13px; fill: rgb(111, 111, 111);">Assignee</text></svg><svg x="479" y="0"><rect x="0" y="0" width="219.931640625" height="33" fill="#316896"></rect><text x="10" y="19.75" style="font-family: &quot;Open Sans&quot;, sans-serif; font-size: 13px; font-weight: bold; fill: rgb(255, 255, 255);">Item</text></svg><svg x="479" y="33"><rect x="0" y="0" width="219.931640625" height="33" fill="#F2F2F2"></rect><text x="10" y="19.75" style="font-family: &quot;Open Sans&quot;, sans-serif; font-size: 13px; font-weight: bold; fill: black;">id</text><text x="191.44091796875" y="19.75" style="font-family: &quot;Open Sans&quot;, sans-serif; font-size: 13px; font-weight: bold; fill: black;">Int</text></svg><svg x="479" y="66"><rect x="0" y="0" width="219.931640625" height="33" fill="#F2F2F2"></rect><text x="10" y="19.75" style="font-family: &quot;Open Sans&quot;, sans-serif; font-size: 13px; fill: rgb(111, 111, 111);">title</text><text x="174.54345703125" y="19.75" style="font-family: &quot;Open Sans&quot;, sans-serif; font-size: 13px; fill: rgb(111, 111, 111);">String</text></svg><svg x="479" y="99"><rect x="0" y="0" width="219.931640625" height="33" fill="#F2F2F2"></rect><text x="10" y="19.75" style="font-family: &quot;Open Sans&quot;, sans-serif; font-size: 13px; fill: rgb(111, 111, 111);">description</text><text x="174.54345703125" y="19.75" style="font-family: &quot;Open Sans&quot;, sans-serif; font-size: 13px; fill: rgb(111, 111, 111);">String</text></svg><svg x="479" y="132"><rect x="0" y="0" width="219.931640625" height="33" fill="#F2F2F2"></rect><text x="10" y="19.75" style="font-family: &quot;Open Sans&quot;, sans-serif; font-size: 13px; fill: rgb(111, 111, 111);">assignee</text><text x="193.6943359375" y="19.75" style="font-family: &quot;Open Sans&quot;, sans-serif; font-size: 13px; fill: rgb(111, 111, 111);">Int</text></svg><svg x="479" y="165"><rect x="0" y="0" width="219.931640625" height="33" fill="#F2F2F2"></rect><text x="10" y="19.75" style="font-family: &quot;Open Sans&quot;, sans-serif; font-size: 13px; fill: rgb(111, 111, 111);">dueDateTime</text><text x="151.56494140625" y="19.75" style="font-family: &quot;Open Sans&quot;, sans-serif; font-size: 13px; fill: rgb(111, 111, 111);">DateTime</text></svg><svg x="479" y="198"><rect x="0" y="0" width="219.931640625" height="33" fill="#F2F2F2"></rect><text x="10" y="19.75" style="font-family: &quot;Open Sans&quot;, sans-serif; font-size: 13px; fill: rgb(111, 111, 111);">status</text><text x="193.6943359375" y="19.75" style="font-family: &quot;Open Sans&quot;, sans-serif; font-size: 13px; fill: rgb(111, 111, 111);">Int</text></svg><svg x="479" y="231"><rect x="0" y="0" width="219.931640625" height="33" fill="#F2F2F2"></rect><text x="10" y="19.75" style="font-family: &quot;Open Sans&quot;, sans-serif; font-size: 13px; fill: rgb(111, 111, 111);">listId</text><text x="193.6943359375" y="19.75" style="font-family: &quot;Open Sans&quot;, sans-serif; font-size: 13px; fill: rgb(111, 111, 111);">Int</text></svg><svg x="479" y="264"><rect x="0" y="0" width="219.931640625" height="33" fill="#F2F2F2"></rect><text x="10" y="19.75" style="font-family: &quot;Open Sans&quot;, sans-serif; font-size: 13px; fill: rgb(111, 111, 111);">list</text><text x="189.03515625" y="19.75" style="font-family: &quot;Open Sans&quot;, sans-serif; font-size: 13px; fill: rgb(111, 111, 111);">List</text></svg><svg x="249.5830078125" y="246"><rect x="0" y="0" width="145.40380859375" height="33" fill="#316896"></rect><text x="10" y="19.75" style="font-family: &quot;Open Sans&quot;, sans-serif; font-size: 13px; font-weight: bold; fill: rgb(255, 255, 255);">Assignee</text></svg><svg x="249.5830078125" y="279"><rect x="0" y="0" width="145.40380859375" height="33" fill="#F2F2F2"></rect><text x="10" y="19.75" style="font-family: &quot;Open Sans&quot;, sans-serif; font-size: 13px; font-weight: bold; fill: black;">id</text><text x="116.9130859375" y="19.75" style="font-family: &quot;Open Sans&quot;, sans-serif; font-size: 13px; font-weight: bold; fill: black;">Int</text></svg><svg x="249.5830078125" y="312"><rect x="0" y="0" width="145.40380859375" height="33" fill="#F2F2F2"></rect><text x="10" y="19.75" style="font-family: &quot;Open Sans&quot;, sans-serif; font-size: 13px; fill: rgb(111, 111, 111);">name</text><text x="100.015625" y="19.75" style="font-family: &quot;Open Sans&quot;, sans-serif; font-size: 13px; fill: rgb(111, 111, 111);">String</text></svg><svg x="249.5830078125" y="345"><rect x="0" y="0" width="145.40380859375" height="33" fill="#F2F2F2"></rect><text x="10" y="19.75" style="font-family: &quot;Open Sans&quot;, sans-serif; font-size: 13px; fill: rgb(111, 111, 111);">listId</text><text x="119.16650390625" y="19.75" style="font-family: &quot;Open Sans&quot;, sans-serif; font-size: 13px; fill: rgb(111, 111, 111);">Int</text></svg><svg x="249.5830078125" y="378"><rect x="0" y="0" width="145.40380859375" height="33" fill="#F2F2F2"></rect><text x="10" y="19.75" style="font-family: &quot;Open Sans&quot;, sans-serif; font-size: 13px; fill: rgb(111, 111, 111);">list</text><text x="114.50732421875" y="19.75" style="font-family: &quot;Open Sans&quot;, sans-serif; font-size: 13px; fill: rgb(111, 111, 111);">List</text></svg></svg>